<svg enable-background="new 0 0 32 32" viewBox="0 0 32 32" xmlns="http://www.w3.org/2000/svg"><path d="m18.958 31.36h-5.915c-.199 0-.36-.161-.36-.36v-3.633l-2.368-.99-2.576 2.575c-.141.141-.368.141-.509 0l-4.182-4.182c-.141-.141-.141-.369 0-.51l2.568-2.568-.974-2.375h-3.642c-.199 0-.36-.161-.36-.36v-5.915c0-.199.161-.36.36-.36h3.632l.991-2.368-2.575-2.575c-.141-.141-.141-.368 0-.509l4.182-4.182c.068-.068.159-.106.255-.106.096 0 .187.038.254.105l2.568 2.569 2.375-.975v-3.641c0-.199.161-.36.36-.36h5.915c.199 0 .36.161.36.36v3.632l2.367.991 2.575-2.575c.141-.141.369-.141.51 0l4.183 4.182c.067.067.105.159.105.254s-.038.187-.105.254l-2.569 2.568.975 2.375h3.642c.199 0 .36.161.36.36v5.915c0 .199-.161.36-.36.36h-3.633l-.99 2.368 2.576 2.575c.067.067.105.159.105.255s-.038.188-.105.255l-4.183 4.182c-.141.141-.369.141-.51 0l-2.568-2.568-2.374.974v3.643c0 .199-.161.36-.36.36zm-5.555-.72h5.195v-3.523c0-.146.089-.277.224-.333l2.819-1.156c.134-.057.288-.024.392.078l2.483 2.483 3.674-3.673-2.492-2.491c-.103-.104-.134-.259-.077-.394l1.176-2.812c.056-.134.187-.222.332-.222h3.512v-5.194h-3.522c-.146 0-.277-.088-.333-.223l-1.157-2.82c-.055-.134-.024-.289.078-.391l2.484-2.483-3.674-3.673-2.491 2.491c-.104.103-.26.134-.394.078l-2.812-1.176c-.134-.056-.222-.187-.222-.332v-3.514h-5.195v3.523c0 .146-.088.278-.223.333l-2.82 1.157c-.135.055-.289.024-.391-.079l-2.484-2.482-3.673 3.672 2.491 2.492c.104.103.134.259.078.394l-1.177 2.812c-.056.134-.187.221-.332.221h-3.512v5.194h3.524c.146 0 .278.089.333.224l1.157 2.82c.055.135.024.289-.079.392l-2.483 2.483 3.673 3.673 2.492-2.491c.103-.104.26-.133.393-.077l2.812 1.176c.134.056.221.187.221.332zm2.597-7.28c-4.058 0-7.36-3.302-7.36-7.36s3.302-7.36 7.36-7.36c4.059 0 7.36 3.302 7.36 7.36 0 4.059-3.301 7.36-7.36 7.36zm0-14c-3.661 0-6.64 2.979-6.64 6.64s2.979 6.64 6.64 6.64 6.64-2.979 6.64-6.64-2.979-6.64-6.64-6.64z"/><path d="m0 0h32v32h-32z" fill="none"/></svg>